<svg xmlns="http://www.w3.org/2000/svg" width="761" height="642" style="shape-rendering:geometricPrecision;text-rendering:geometricPrecision;image-rendering:optimizeQuality;fill-rule:evenodd;clip-rule:evenodd"><path style="opacity:1" fill="#fdfefe" d="M-.5-.5h761v642H-.5z"/><path style="opacity:1" fill="#a1baba" d="M259.5 15.5q8.016-.25 16 .5 2.822.297 5 1.5-10.786-.271-21-2"/><path style="opacity:1" fill="#143b3f" d="M259.5 15.5q10.214 1.729 21 2a819 819 0 0 1 33 1.5 49480 49480 0 0 1 171 355.5q-9.95 1.995-21 2-11.353-.053-22-2a3789 3789 0 0 0-21-43.5 6273 6273 0 0 0-194 .5 9349 9349 0 0 0-59 115 2109 2109 0 0 0-28 55q-15.62 27.73-8.5 59 9.754 27 37.5 35v9q-27.484-2.245-55-4.5a625 625 0 0 0-50 0 4845 4845 0 0 1-51 4.5 21.1 21.1 0 0 1 1-9 226 226 0 0 0 26-16.5q27.52-25.026 47.5-56.5a1344 1344 0 0 0 51-97 5152 5152 0 0 0 57.5-110 89.7 89.7 0 0 0 8-16q50.667-98.328 101.5-197 .245-7.056-4-13a156 156 0 0 0-10.5-14q-20.195-27.63-52-41-26.642-11.155-56-13v-9q38.562.241 77 3m308 359q-21.443 2.975-44 2 .406-2.82-2-4a8787 8787 0 0 0-54-113q-.382-3.7-3-6a2361127 2361127 0 0 0-112-234q24.98-1.5 50-1a892 892 0 0 0 35.5 82 469 469 0 0 1 16 39 18948 18948 0 0 1 113.5 235"/><path style="opacity:1" fill="#ebf4f5" d="M238.5 34.5q31.805 13.37 52 41-2.94-1.422-6-.5l-4-5 2-1q-4.56-2.774-10-3.5a3.65 3.65 0 0 0-1-1.5q2.316-.434 4-2a47.3 47.3 0 0 1-10-6q1.846-1.775 0-3.5-6.285-1.386-10-6.5-5.041-.081-9-3l1-1q-2.25-1.25-3.5-3.5-2.76 2-1.5-.5-2.736-.99-4-3.5"/><path style="opacity:1" fill="#fcfdfd" d="M393.5 275.5q.966 4.224 1 8a44 44 0 0 1-3 5.5l1 1a4622 4622 0 0 1-136 0q-.627-5.075-4-8.5a7429 7429 0 0 1 74.5-145 13270 13270 0 0 1 66.5 139"/><path style="opacity:1" fill="#7a8c90" d="M464.5 253.5q2.618 2.3 3 6-2.618-2.3-3-6"/><path style="opacity:1" fill="#ecf7f9" d="M393.5 275.5a89.7 89.7 0 0 1 8 16 2966 2966 0 0 1-154 0q1.755-5.51 5-10 3.373 3.425 4 8.5 68 1 136 0l-1-1a44 44 0 0 0 3-5.5q-.034-3.776-1-8"/><path style="opacity:1" fill="#cad7d8" d="M203.5 299.5a89.7 89.7 0 0 1-8 16q-1.056-6.454 4-10.5l-1-1a29.5 29.5 0 0 0 2.5-4.5q1.155 1.647 2.5 0"/><path style="opacity:1" fill="#b0bfc1" d="M441.5 374.5q10.647 1.947 22 2 11.05-.005 21-2 1.356 1.063 1 3h-44z"/><path style="opacity:1" fill="#9badaf" d="M521.5 372.5q2.406 1.18 2 4 22.557.975 44-2 1.356 1.063 1 3h-46a20.7 20.7 0 0 0-1-5"/><path style="opacity:1" fill="#627677" d="M286.5 395.5h-52v4q-1.426-2.128-1-5 26.762-.495 53 1"/><path style="opacity:1" fill="#637676" d="M323.5 395.5q7.484-.999 15.5-1 8.318.008 15.5 2a249 249 0 0 0-31-1"/><path style="opacity:1" fill="#6b7e7d" d="M405.5 395.5q15.73-1.491 32-1 .426 2.872-1 5v-4z"/><path style="opacity:1" fill="#617473" d="M535.5 395.5a442 442 0 0 1 42-1q.426 2.872-1 5v-4z"/><path style="opacity:1" fill="#647778" d="M661.5 399.5q-1.401-1.602-1-4h-73q.46 4.328-1 8v-9h75z"/><path style="opacity:1" fill="#687a7b" d="M711.5 399.5v-4h-41v4q-1.426-2.128-1-5h43q.426 2.872-1 5"/><path style="opacity:1" fill="#e6f3f3" d="M603.5 485.5v1q-3.4-2.54-1-6.5a50.5 50.5 0 0 1 10-.5v-4h3q.102-35.421-.5-71-.612-2.865-3.5-3-5.228 2.39-11 2 4.029-4.767 10.5-4 3.453.15 6 2a1482 1482 0 0 1 0 77q-6.267 2.848-13.5 2z"/><path style="opacity:1" fill="#173b3e" d="M286.5 395.5q28.837 4.088 20.5 32a40 40 0 0 1-7.5 7.5 323 323 0 0 1-17 5q7.968 1.608 13.5 7.5a130 130 0 0 1 9 26q2.768 6.443 8 2 1.974-4.782 1.5-10h5q1.171 15.727-13 21-14.775.99-16.5-14-.456-13.694-6-26-3.864-3.963-9.5-4.5a85 85 0 0 0-13-.5 362 362 0 0 0 1 38q.166.926 1 1.5 5.979.749 12 .5v4h-41v-4q4.82.465 9-1 2.835.305 4.5-2a1482 1482 0 0 0 0-77l-1.5-1.5a72.4 72.4 0 0 0-12-.5v-4z"/><path style="opacity:1" fill="#f6f9f9" d="M264.5 399.5q8.016-.249 16 .5 11.224-.032 14.5 10.5 5.106 19.952-14.5 25.5-9.487.75-19 .5-.25-17.008.5-34 1.047-1.786 2.5-3"/><path style="opacity:1" fill="#183b3e" d="M711.5 399.5h-8a9.1 9.1 0 0 0-5 1 783 783 0 0 0 0 79q.513 1.258 2 1 5.193 1.473 11 1v4h-41v-4q5.313.469 10-1 2.276-.016 3.5-2a1482 1482 0 0 0 0-77q-6.441-2.622-13.5-2v-4h41z"/><path style="opacity:1" fill="#1a3c3f" d="M661.5 399.5q.92 14.982 1 30h-4q-.118-18.237-14.5-29-6.27-1.955-12.5 0a1041 1041 0 0 0-.5 79q.575.834 1.5 1 5.697 1.475 12 1v4h-41v-5q7.233.848 13.5-2a1482 1482 0 0 0 0-77q-2.547-1.85-6-2-6.471-.767-10.5 4-10.569 10.685-10 26h-5q.766-12.987 1-26 1.46-3.672 1-8h73q-.401 2.398 1 4"/><path style="opacity:1" fill="#bdcfd0" d="M703.5 399.5q-2.387 1.078-4.5 3-.75 38.497-.5 77a783 783 0 0 1 0-79 9.1 9.1 0 0 1 5-1"/><path style="opacity:1" fill="#c9d9db" d="M424.5 400.5a1503 1503 0 0 0-1 77q-1-18.993-1-38.5.001-19.777 2-38.5"/><path style="opacity:1" fill="#5c6f6f" d="M336.5 400.5q.926.166 1.5 1 1.245 34.755-.5 69 .47-35.067-1-70"/><path style="opacity:1" fill="#e0ebec" d="M167.5 446.5q2.455 5.221-2 9 .795 2.616 0 4.5-2.488 2.762-6 3.5a25 25 0 0 1-.5 7q-1.775-3.23-3.5 1l2 1a18 18 0 0 1-2 3.5q1.255 1.517 1 3.5-2.951-.359-5.5 1-1.158 9.24-6.5 15-.43 4.815-5 6a2109 2109 0 0 1 28-55"/><path style="opacity:1" fill="#1b3c3f" d="M500.5 459.5v-4a343 343 0 0 0-37 1 52.7 52.7 0 0 0-5 16.5q-.158 3.268 2 5.5.837 1.935 3 2.5 3.97.746 8 .5v4h-32v-4q2.872.426 5-1 5.533-3.793 8.5-10a3550 3550 0 0 1 30.5-78h5a13855 13855 0 0 0 32.5 84q3.923 5.06 10.5 4v5h-36v-5a55 55 0 0 0 12-1 62.8 62.8 0 0 0-7-20"/><path style="opacity:1" fill="#c0cdd2" d="M463.5 456.5a343 343 0 0 1 37-1v4q-1.15-1.008-2-2.5a612 612 0 0 0-35-.5"/><path style="opacity:1" fill="#6b7a7d" d="M496.5 448.5q1.356 1.063 1 3-15.77.491-31-1 15.583.961 30-2"/><path style="opacity:1" fill="#f4f8f8" d="M496.5 448.5q-14.417 2.961-30 2a348 348 0 0 1 15.5-39 831 831 0 0 1 14.5 37"/><path style="opacity:1" fill="#1a3b3f" d="M535.5 395.5h41v4a72.4 72.4 0 0 0-12 .5l-1.5 1.5a1482 1482 0 0 0 0 77q1.224 1.984 3.5 2 4.687 1.469 10 1v4h-41v-5q7.233.848 13.5-2a1482 1482 0 0 0 0-77q-6.441-2.622-13.5-2z"/><path style="opacity:1" fill="#eaf4f3" d="M306.5 486.5q-4.687.9-1 3.5l-1 .5q-3.222-1.887-6.5 0-7.902-5.337-10.5-13a3.65 3.65 0 0 1 1-1.5 181 181 0 0 1-1.5-18.5 63 63 0 0 1-4.5-10q-6.62-3.13-14-5a7.9 7.9 0 0 0-3.5 1 368 368 0 0 1-1.5 26 32.4 32.4 0 0 1 1.5 6q6.12.576 12.5.5 4.18 4.956 3 11 3.314 1.436-.5 3.5a4.46 4.46 0 0 0-1.5-2q-2.64 3.781-7 2.5 2-1 0-2l-39-1q.834-.574 1-1.5h43v-6a59.6 59.6 0 0 1-14-1 362 362 0 0 1-1-38 85 85 0 0 1 13 .5q5.636.537 9.5 4.5 5.544 12.306 6 26 1.725 14.99 16.5 14"/><path style="opacity:1" fill="#6e817c" d="M460.5 478.5q5.7 2.465 12 2v5h-1v-4a32.5 32.5 0 0 1-8-.5q-2.163-.565-3-2.5"/><path style="opacity:1" fill="#1a3c3e" d="M323.5 395.5a249 249 0 0 1 31 1 8820 8820 0 0 0 26.5 68 8125 8125 0 0 1 24.5-69h31v4q-6.303-.475-12 1-1.999 18.723-2 38.5 0 19.507 1 38.5-.129 1.494 1 2.5 5.979.749 12 .5v5h-41v-5a61 61 0 0 0 11-.5q1.374-.417 2-1.5a991 991 0 0 0 .5-77 10.1 10.1 0 0 0-1.5 4 10363 10363 0 0 0-27.5 78q-3 4-6 0a1865 1865 0 0 0-29.5-80q.197-1.314-1-2-1.992 33.744 0 67 .904 11.904 13 13 1.393 1.783 1 4h-34v-5a28.8 28.8 0 0 0 11-2.5q2.553-3.352 3-7.5a796 796 0 0 0 .5-69q-.574-.834-1.5-1a77 77 0 0 0-13-1z"/><path style="opacity:1" fill="#667c80" d="M344.5 403.5a1057 1057 0 0 0-1 65q-1.992-33.256 0-67 1.197.686 1 2"/><path style="opacity:1" fill="#a9bcbd" d="M408.5 478.5q.497-36.759-1-73a10.1 10.1 0 0 1 1.5-4q1.245 38.755-.5 77"/><path style="opacity:1" fill="#93a8a6" d="M262.5 479.5a59.6 59.6 0 0 0 14 1v6h-43v-6h10q-4.18 1.465-9 1v4h41v-4a72.4 72.4 0 0 1-12-.5q-.834-.574-1-1.5"/><path style="opacity:1" fill="#9fb5b4" d="M444.5 480.5q-2.128 1.426-5 1v4h33q-16.731 1.492-34 1v-6z"/><path style="opacity:1" fill="#9bacad" d="M566.5 480.5h11v6a442 442 0 0 1-42-1h41v-4q-5.313.469-10-1"/><path style="opacity:1" fill="#98acab" d="M632.5 480.5h13v6h-42v-1h41v-4q-6.303.475-12-1"/><path style="opacity:1" fill="#97aaaa" d="M680.5 480.5q-4.687 1.469-10 1v4h41v-4q-5.807.473-11-1h12v6h-43v-6z"/><path style="opacity:1" fill="#7d8c8f" d="M256.5 501.5q-6.303-.475-12 1-.814-.09-1-1 6.726-1.966 13 0"/><path style="opacity:1" fill="#7e8b8c" d="M274.5 501.5q6.274-1.966 13 0-1.237 1.329-3 1-4.687-1.469-10-1"/><path style="opacity:1" fill="#7f8f8f" d="M528.5 501.5q-13.773-.49-27 1-.814-.09-1-1 14.238-1.983 28 0"/><path style="opacity:1" fill="#edf4f5" d="M447.5 500.5a89 89 0 0 0 2 4 153 153 0 0 1-7 23q-2.549.04-4 2a2.43 2.43 0 0 0-.5-2l-3 3q.618-9.324 4.5-18-5.683-1.904-11 1a9.3 9.3 0 0 1 2 2.5q-4.311 8.943-3 18.5-5.763-1.126-9 4.5-7.938 2.399-8-5.5 8.17 3.47 12.5-4 1.032-1.248-.5-2a9.4 9.4 0 0 0-3 3l-1-2.5a54.4 54.4 0 0 0 3-13.5h5v-3h-3q-.401-2.398 1-4-.18 4.058 3 2 1.817-1.16 0-2.5 4.446-1.26 1-3a4.93 4.93 0 0 1 3-.5q.57-5.349 6-7a31 31 0 0 0 8 5q1.025-.544 2-1"/><path style="opacity:1" fill="#1e3d3a" d="M434.5 499.5q8.225-.029 5 7.5-10.226 1.292-5-7.5"/><path style="opacity:1" fill="#e8f0f2" d="M705.5 523.5a38 38 0 0 0 5.5-5q1.344-3.788-1.5-6.5-12.97-2.64-18.5 9.5-2.595 16.146 13.5 12-.456.975-1 2-9.558 4.548-16-3-1.197.686-1 2a75.6 75.6 0 0 0-13-7q14.056-.576 17-14h4q-.329-1.762 1-3 4.96-2.293 10-1.5-3.143-.834-.5-1.5 1.418.608 2 2a4.46 4.46 0 0 1 1.5-2 42.6 42.6 0 0 0 8 3.5l-3 1 2 5q-3.175 2.597-4.5 6.5-2.257-.927-5.5 0"/><path style="opacity:1" fill="#e6f0f0" d="M329.5 512.5q-6.058-2.148-10 3v-4q-3.839-.452-7 1-2.217-.393-4 1 1.237 1.329 3 1a82 82 0 0 0-4 19h7a206 206 0 0 1-8.5 2q-.582-1.392-2-2a23 23 0 0 0-7 4q-4.073-1.857-8 0-1.782-1.595-1.5-4 9.033 3.147 15.5-4 1.032-1.248-.5-2-8.713 9.081-10-3 7.734.007 12.5-6 1.03-3.102-.5-6a21.1 21.1 0 0 0-9-1q1.96-1.451 2-4 12.072 3.269 24.5 1 3.277.631 6.5 1.5 1.129 1.006 1 2.5"/><path style="opacity:1" fill="#203f40" d="M442.5 527.5a153 153 0 0 0 7-23 89 89 0 0 1-2-4 49.4 49.4 0 0 0 11-1 1528 1528 0 0 0-8 29.5l1 1.5a9.4 9.4 0 0 1 3-3q1.532.752.5 2-4.64 5.716-11.5 4a12 12 0 0 1-1-6"/><path style="opacity:1" fill="#6f878a" d="M312.5 512.5q3.161-1.452 7-1v4l-1 4q-.904-3.189 0-7z"/><path style="opacity:1" fill="#e8f0f1" d="M417.5 509.5q-2.868 1.065-5 3.5a18.2 18.2 0 0 1 2 3.5q-3.862 8.08-4 17a2.43 2.43 0 0 1-2-.5q2.012-4.893-1-1.5a44 44 0 0 0-2-1q1.49-5.475-2.5 0-.582-4.777 2-9 1-4.5 0-9-3.601-1.653-7.5-.5l-5.5 5.5q.203-2.887.5-6a29.8 29.8 0 0 1 7-2q-.059-2.788 2.5-4a21.6 21.6 0 0 1 7.5 6.5q-3.302 1.166 0 3.5a26.6 26.6 0 0 0 2-3.5q-1.255-1.517-1-3.5 2.951.359 5.5-1 .417 1.374 1.5 2"/><path style="opacity:1" fill="#324545" d="M329.5 512.5q.446 8.027-7 5-2.36.377-4 2l1-4q3.942-5.148 10-3"/><path style="opacity:1" fill="#233f40" d="M690.5 513.5q-2.944 13.424-17 14a75.6 75.6 0 0 1 13 7q-.25 6.27-6 8.5-7.5 1-15 0-3.629-2.263-3-6.5 2.694-1.941 6-3-4.304-5.118 2-8-6.4-7.69 2-13.5 9.206-1.095 18 1.5"/><path style="opacity:1" fill="#1f3c3d" d="M244.5 502.5q5.697-1.475 12-1a687 687 0 0 0 3.5 21 412 412 0 0 0 14.5-21q5.313-.469 10 1-.926.166-1.5 1a1903 1903 0 0 0-7.5 26q.422 3.417 4 3.5a72.5 72.5 0 0 1-17 0q2.988-.861 4.5-3.5a376 376 0 0 0 4-19 417 417 0 0 0-15 23q-1.517 1.255-3.5 1a501 501 0 0 0-4-27 104.2 104.2 0 0 0-5.5 24q1.006 1.129 2.5 1-4.71 1.712-10 .5 4.563-.832 5.5-5.5a683 683 0 0 0 5.5-22.5q-.276-2.064-2-2.5"/><path style="opacity:1" fill="#203d3f" d="M501.5 502.5q13.227-1.49 27-1a21.4 21.4 0 0 0-1 7q-.09.814-1 1-3.667-9.082-13-6a60.2 60.2 0 0 0-3 12q6.675.537 10.5-5-.291 6.67-3 13-.725-8.474-8.5-5a32.4 32.4 0 0 0-3 13q11.997 1.93 18.5-8a134 134 0 0 1-1.5 10h-31q4.409-1.213 5.5-6a1105 1105 0 0 0 5.5-22.5q-.276-2.064-2-2.5"/><path style="opacity:1" fill="#203d40" d="M617.5 511.5a69.5 69.5 0 0 0 16 1 475 475 0 0 0-5 16.5l1 1.5a9.4 9.4 0 0 0 3-3l1 1q-3.575 6.787-11 5.5a11.3 11.3 0 0 1-1.5-3.5q-5.481 6.456-12.5 2-2.522-13.461 9-21"/><path style="opacity:1" fill="#e3eeee" d="M252.5 534.5q-1.393-2.154-3.5-4-1.08-2.418.5-4.5-1.823-3.144-2.5.5l-1-1a25 25 0 0 0-.5 7q-1.494.129-2.5-1 1.308-12.24 5.5-24a501 501 0 0 1 4 27"/><path style="opacity:1" fill="#1e3e40" d="M585.5 533.5a16.9 16.9 0 0 1-8-1 294 294 0 0 0 7-27.5q-.383-1.989-2-3 .834-.574 1-1.5 4.915.426 9.5-1a309 309 0 0 0-3 17q5.464-7.176 13-3 .28 8.139-3.5 15.5l1 1.5a9.4 9.4 0 0 0 3-3q-.066 4.413-5 6.5-3.63 1.03-6.5-1.5a102.6 102.6 0 0 1 3.5-17q-4.188-.072-5.5 4-4.216 6.4-4.5 14"/><path style="opacity:1" fill="#1e3c40" d="M312.5 512.5h6q-.904 3.811 0 7a36.7 36.7 0 0 0-4 14h-7a82 82 0 0 1 4-19q-1.763.329-3-1 1.783-1.393 4-1"/><path style="opacity:1" fill="#213e3f" d="M360.5 511.5q8.6 1.11 17 1a5938 5938 0 0 0-5 18h3q-.329-1.762 1-3 1.846 1.726 0 3.5-4.257 4.137-10 3a11.3 11.3 0 0 1-1.5-3.5q-5.481 6.456-12.5 2-2.55-8.086 2.5-15a46 46 0 0 0 5.5-6"/><path style="opacity:1" fill="#e2eff0" d="M365.5 513.5q2.976-.024 3 3-1.414 7.507-6 13.5a4.93 4.93 0 0 1-3 .5q-.556-9.833 6-17"/><path style="opacity:1" fill="#dbe7eb" d="M677.5 513.5q3.672-.622 4 3 .09 5.822-5 8-3.986-5.669 1-11"/><path style="opacity:1" fill="#203d3e" d="M295.5 511.5a21.1 21.1 0 0 1 9 1q1.53 2.898.5 6-4.766 6.007-12.5 6 1.287 12.081 10 3 1.532.752.5 2-6.467 7.147-15.5 4-7.379-14.761 8-22"/><path style="opacity:1" fill="#d9eaec" d="M296.5 513.5h4q-.304 6.803-7 8 1.422-3.96 3-8"/><path style="opacity:1" fill="#1e3b3d" d="M705.5 523.5a52 52 0 0 0-7 1q.662 12.207 9.5 3 1 1.5 0 3-2.277.995-3.5 3-16.095 4.146-13.5-12 5.53-12.14 18.5-9.5 2.844 2.712 1.5 6.5a38 38 0 0 1-5.5 5"/><path style="opacity:1" fill="#d6e9ea" d="M702.5 513.5h3q.408 8.069-7 8 1.23-4.458 4-8"/><path style="opacity:1" fill="#1e3d40" d="M392.5 511.5a240 240 0 0 0-.5 6l5.5-5.5q3.899-1.153 7.5.5 1 4.5 0 9-2.582 4.223-2 9 3.99-5.475 2.5 0-4.21 5.235-10.5 3-.408-8.88 3.5-17l-1.5-1q-3.981 1.982-6 6a137 137 0 0 0-3.5 11 13.1 13.1 0 0 1-7 1 117.6 117.6 0 0 1 4-17.5 9.3 9.3 0 0 0-2-2.5 26.8 26.8 0 0 1 10-2"/><path style="opacity:1" fill="#234044" d="M424.5 507.5q-1.401 1.602-1 4h3v3h-5a54.4 54.4 0 0 1-3 13.5l1 2.5a9.4 9.4 0 0 1 3-3q1.532.752.5 2-4.33 7.47-12.5 4 .138-8.92 4-17a18.2 18.2 0 0 0-2-3.5q2.132-2.435 5-3.5a34.6 34.6 0 0 1 5.5-4q1.545.504 1.5 2"/><path style="opacity:1" fill="#264144" d="M471.5 510.5q9.56-1.156 8.5 8-5.559 5.654-13.5 6 1.287 12.081 10 3l1 1q-5.113 8.559-15 5.5-6.331-5.733-2.5-13.5 4.227-6.992 11.5-10"/><path style="opacity:1" fill="#d2e6e8" d="M470.5 513.5h4q.336 8.14-7 8 1.52-4.032 3-8"/><path style="opacity:1" fill="#e6f1f2" d="M620.5 513.5q3.202-.53 4 2.5a46.7 46.7 0 0 1-4.5 12.5q-1.665 2.305-4.5 2-.21-9.362 5-17"/><path style="opacity:1" fill="#203d41" d="M438.5 529.5q-4.118 5.306-11 5-1.311-9.557 3-18.5a9.3 9.3 0 0 0-2-2.5q5.317-2.904 11-1-3.882 8.676-4.5 18l3-3q.696.891.5 2"/><path style="opacity:1" fill="#edf3f3" d="M583.5 500.5q-.166.926-1 1.5 1.617 1.011 2 3a294 294 0 0 1-7 27.5 16.9 16.9 0 0 0 8 1q-1.095 2.317-4 2.5l3 1q-5.383.055-10 2.5-1.83-1.817-3.5 0-.224-4.168-2.5-1.5-8.621-.042-15.5-5.5-5.159 2.986-11 7-.765-4.136-5-4a242 242 0 0 0-6 4q-3.543-1.295-4.5-5-4.893 1.832-10 1.5l2-1q-11.37-1.22-22.5.5a19.6 19.6 0 0 1-3.5-2h31a134 134 0 0 0 1.5-10q-6.503 9.93-18.5 8a32.4 32.4 0 0 1 3-13q7.775-3.474 8.5 5 2.709-6.33 3-13-3.825 5.537-10.5 5a60.2 60.2 0 0 1 3-12q9.333-3.082 13 6 .91-.186 1-1 1.983.255 3.5-1a10.1 10.1 0 0 1 1.5 4q-.166.925-1 1.5a8.4 8.4 0 0 0 4 .5 44.6 44.6 0 0 1 1.5 12q-2.219 5.012-7 3-6.753 3.201 0 6 5.391-1.89 8-7 3.142 11.852 12.5 3.5 1.817-1.34 0-2.5l-3 2q-2.919-5.17-2.5-11 .75-1.75 2.5-2.5a25 25 0 0 1 7-.5v-4q1.356 1.063 1 3h4q-1.23-5.61 4-7a76 76 0 0 0 12 2v-8q2.436.21 3.5-2 2.108 1.752 3.5-1 .91.186 1 1"/><path style="opacity:1" fill="#233d3f" d="M532.5 511.5q5.025-.247 10 .5a55 55 0 0 0 2 4.5q3.32-7.01 10-4v4a25 25 0 0 0-7 .5q-1.75.75-2.5 2.5-.419 5.83 2.5 11l3-2q1.817 1.16 0 2.5-9.358 8.352-12.5-3.5-2.609 5.11-8 7-6.753-2.799 0-6 4.781 2.012 7-3a44.6 44.6 0 0 0-1.5-12 8.4 8.4 0 0 1-4-.5q.834-.575 1-1.5"/><path style="opacity:1" fill="#233c3f" d="M338.5 511.5q10.979-2.729 10.5 8-7.591 2.655-4.5-5-3.515-1.838-5.5 2-3.405 6.645-2 14 5.607 1.85 9.5-3 .475 3.88-4 5.5-15.846 5.162-13.5-11.5 3.033-6.78 9.5-10"/><path style="opacity:1" fill="#213d3f" d="M559.5 515.5q6.078-6.11 14.5-3 5.939 7.21-3.5 8v-7q-2.835-.305-4.5 2-5.1 7.536-1.5 15.5 2 1 4 0a20 20 0 0 1 4-3.5l1 1.5q-5.696 7.165-15 5l-2.5-2.5q-2.22-9.073 3.5-16"/><path style="opacity:1" fill="#e3eced" d="M690.5 513.5q-8.794-2.595-18-1.5-8.4 5.81-2 13.5-6.304 2.882-2 8-3.306 1.059-6 3 .426-2.872-1-5 2.187-7.133-2-1l-1-1.5a94 94 0 0 1 4-11.5q-.167 5.933 1.5 12l3.5-4.5-2-2q1.58-2.082.5-4.5-1.333 2.082-1.5-.5 2.814-4.742 3-9.5 6.064-1.499 12 1a50 50 0 0 0 7.5-2l1 4q1 2 2 0 .696.891.5 2"/><path style="opacity:1" fill="#203f41" d="M662.5 517.5a94 94 0 0 0-4 11.5l1 1.5q4.187-6.133 2 1a32.8 32.8 0 0 1-7 3q-5.47-1.479-3.5-7a81 81 0 0 0 3.5-12q-4.713.449-6.5 5a260 260 0 0 0-4.5 12 13.1 13.1 0 0 1-7 1 104.5 104.5 0 0 1 4-16.5 7.3 7.3 0 0 0-2-3.5q5.446-2.332 11-1-1.392 1.902-.5 4 3.95-6.85 11.5-4.5 2.483 2.167 2 5.5"/><path style="opacity:1" fill="#e5f3f4" d="M670.5 534.5q3.64.034 7 1.5 1.58 2.082.5 4.5-10.283 4.239-7.5-6"/><path style="opacity:1" fill="#46666c" d="M711.5 550.5v5q-.925.166-1.5 1l-1 46q-2.668 1.469-5-1-44.152 1.094-88.5 2a100 100 0 0 0-25 0q-7.418-3.577-15 0-40.178-1.264-79.5 0l-1-2q-13.146 2.806-26 0-112.193.7-224.5 2-4.613-.124-7-4a5340 5340 0 0 1-2-49z"/><path style="opacity:1" fill="#566b6d" d="M234.5 549.5q238.752-.5 477 1h-476a5340 5340 0 0 0 2 49q2.387 3.876 7 4 112.307-1.3 224.5-2 12.854 2.806 26 0l1 2q39.322-1.264 79.5 0 7.582-3.577 15 0a100 100 0 0 1 25 0q44.348-.906 88.5-2 2.332 2.469 5 1l1-46q.575-.834 1.5-1v49h-477z"/><path style="opacity:1" fill="#94acb1" d="M526.5 589.5q2.5 2 5 0h5q4.5 2 9 0 .814.09 1 1l-6 1q-5.962-.995-11.5 0l-4.5-1q.686-1.197 2-1"/><path style="opacity:1" fill="#a4b5bc" d="M492.5 588.5q.978 1.838 3.5 2 2.077-.021 3.5-1 1.314-.197 2 1-5.5 2-11 0 .533-1.533 2-2"/><path style="opacity:1" fill="#98b0b4" d="M452.5 589.5q4.5 2 9 0 .814.09 1 1-6 2-12 0 .686-1.197 2-1"/><path style="opacity:1" fill="#98b1b3" d="M422.5 589.5q4.5 2 9 0 1.314-.197 2 1-6 2-12 0 .186-.91 1-1"/><path style="opacity:1" fill="#9bb4b8" d="M340.5 588.5q.978 1.838 3.5 2 2.077-.021 3.5-1 1.314-.197 2 1-6 2-12 0a7.5 7.5 0 0 1 3-2"/><path style="opacity:1" fill="#9eb2b5" d="M323.5 589.5q5.5 2 11 0 .814.09 1 1-7.5 2-15 0 1.237-1.329 3-1"/><path style="opacity:1" fill="#cddfe0" d="M639.5 572.5a96 96 0 0 0 3 18q-5.5 2-11 0a4.46 4.46 0 0 1 1.5-2q.749-7.484.5-15 1.479 6.705 1 14h5z"/><path style="opacity:1" fill="#edf4f8" d="M555.5 584.5q2.912 2.266 1.5 6-2.034 1.32-4.5 1-4.664-5.997 3-7"/><path style="opacity:1" fill="#e3edee" d="M587.5 569.5q17.95-1.797 14.5 16-5.241 8.742-15 5-6.39-6.124-4-15a41 41 0 0 1 4.5-6"/><path style="opacity:1" fill="#758e94" d="M372.5 589.5q4.206 1.707 9 .5-.834-.575-1-1.5 2.243-.128 3 2a78.6 78.6 0 0 1-25 0q.686-1.197 2-1 1.683.984 4 1 2.75-.128 4-2 2.352-3.467 2.5-8 1.165 4.394-.5 8.5a2.43 2.43 0 0 0 2 .5"/><path style="opacity:1" fill="#7c8d92" d="M620.5 588.5q1.25 1.872 4 2 2.317-.016 4-1 .814.09 1 1a66.6 66.6 0 0 1-23 0q.186-.91 1-1 4.206 1.707 9 .5-.834-.575-1-1.5 2.146-.572 2.5-3 2.23 1.13.5 2.5a2.43 2.43 0 0 0 2 .5"/><path style="opacity:1" fill="#a0afb2" d="M555.5 584.5q-7.664 1.003-3 7-1.494.129-2.5-1-1.767-7.976 5.5-6"/><path style="opacity:1" fill="#cfdee0" d="M386.5 572.5q1 8.271 2 17 2.687-.693 3-3.5a53 53 0 0 0 1-12.5 87 87 0 0 0 3 17q-5.5 2-11 0l1.5-3q.749-7.484.5-15"/><path style="opacity:1" fill="#eaf4f5" d="M403.5 569.5q5.025-.247 10 .5l2.5 2.5q.749 7.984.5 16a4.93 4.93 0 0 1 3 .5q-4.576 4.589-9.5.5-12.924 6.194-9-7 4.368-3.17 9.5-4a13.1 13.1 0 0 0-1-7q-3.129-2.285-5 1 3.091 7.655-4.5 5-1.83-5.69 3.5-8"/><path style="opacity:1" fill="#646e71" d="M408.5 579.5q2.804 3.203 2 8h-5q-.726-4.932 3-8"/><path style="opacity:1" fill="#476566" d="M620.5 572.5v16a2.43 2.43 0 0 1-2-.5q1.73-1.37-.5-2.5-.354 2.428-2.5 3a98.4 98.4 0 0 1 .5-14q1.573-2.41 4.5-2"/><path style="opacity:1" fill="#798d8c" d="M474.5 574.5a92.7 92.7 0 0 0 1 17 31.1 31.1 0 0 1-11-1q.686-1.197 2-1 3.7 1.701 8 .5-1.986-7.9 0-15.5"/><path style="opacity:1" fill="#4a6369" d="M589.5 571.5q2.951-.359 5.5 1 1 7.5 0 15-2.5 4-5 0a129 129 0 0 1-.5-16"/><path style="opacity:1" fill="#edf5f6" d="M620.5 569.5q4.381-.531 7 3 4.167-4.21 10-2.5 1.321 1.063 2 2.5v15h-5q.479-7.295-1-14-2.983-2.08-5.5 1-1.167 7.626.5 15-1.683.984-4 1-2.75-.128-4-2z"/><path style="opacity:1" fill="#f3fbfc" d="M615.5 588.5q.166.925 1 1.5-4.794 1.207-9-.5 1.485-8.715 1-18 2.648-1.442 6-1-.485 9.285 1 18"/><path style="opacity:1" fill="#ebf3f4" d="M499.5 589.5q-1.423.979-3.5 1-2.522-.162-3.5-2v-16q-3.333-.483-5.5 2l-.5 7.5q.164 4.553 2 8.5-5.5 2-11 0 2.842-8.664 2-18-3.081-.202-5 2-1.986 7.6 0 15.5-4.3 1.201-8-.5.997-4.221 1-9-.134-5.293-2-10 4.838-2.161 9 1 6.221-4.252 11.5 1 4.363-4.34 10.5-2.5a6.98 6.98 0 0 1 2.5 3.5q.749 7.984.5 16"/><path style="opacity:1" fill="#f1f9f9" d="M461.5 589.5q-4.5 2-9 0 2.473-9.704-1-19a16.9 16.9 0 0 1 8-1q-.25 9.513.5 19 .574.834 1.5 1"/><path style="opacity:1" fill="#eff7f7" d="M392.5 573.5a53 53 0 0 1-1 12.5q-.313 2.807-3 3.5a2740 2740 0 0 0-2-17q-3.333-.483-5.5 2a98.4 98.4 0 0 0-.5 14q.166.925 1 1.5-4.794 1.207-9-.5 1.483-8.213 1-17-3.124-.042-5.5 2-1.16 7.128.5 14-1.25 1.872-4 2-2.317-.016-4-1 2.473-9.704-1-19a16.9 16.9 0 0 1 8-1q-.086 5.45 3 .5 5.661-1.774 9.5 2.5 5.007-4.227 11.5-2.5 1.255 1.517 1 3.5"/><path style="opacity:1" fill="#4d646c" d="M372.5 589.5a2.43 2.43 0 0 1-2-.5q1.665-4.106.5-8.5-.148 4.533-2.5 8-1.66-6.872-.5-14 2.376-2.042 5.5-2 .483 8.787-1 17"/><path style="opacity:1" fill="#e9f2f2" d="M334.5 589.5q-5.5 2-11 0a52 52 0 0 0-1-7 72.4 72.4 0 0 0-12 .5 14.8 14.8 0 0 0-2 6.5q2.217-.393 4 1-5 2-10 0a12.4 12.4 0 0 0 4.5-5 641 641 0 0 0 12-27 336 336 0 0 0 15.5 31"/><path style="opacity:1" fill="#5b6f73" d="M315.5 570.5q3.62 3.727 5 9-4.5 2-9 0a53.7 53.7 0 0 0 4-9"/><path style="opacity:1" fill="#e4f0f1" d="M510.5 569.5q12.021-1.967 12 10h-11q-.574 11.988 9.5 6 .582 2.364-1.5 4-11.21 6.237-14.5-6-1.78-8.92 5.5-14"/><path style="opacity:1" fill="#566363" d="M512.5 570.5q1.983-.255 3.5 1 .743 2.96.5 6h-5q-.303-3.675 1-7"/><path style="opacity:1" fill="#f2fafb" d="M431.5 589.5q-4.5 2-9 0 2.93-8.361 2-18-1.763.329-3-1a21.1 21.1 0 0 1 9-1q-.486 10.281 1 20"/><path style="opacity:1" fill="#c0d3d4" d="M620.5 569.5v3q-2.927-.41-4.5 2a98.4 98.4 0 0 0-.5 14q-1.485-8.715-1-18-3.352-.442-6 1-1.314.197-2-1l4.5-1q2.971.194 5 2a9.2 9.2 0 0 1 4.5-2"/><path style="opacity:1" fill="#e6f2f4" d="M566.5 569.5q5.217-.474 10 1.5 2.594 2.684 2 6.5a12.9 12.9 0 0 1-5-.5q-.675-3.751-3-6.5a7.25 7.25 0 0 0-2.5 2q-1.1 6.707 1.5 13 4.5 4 9 0l1 1q-4.925 6.56-13 4.5-7.067-6.21-4.5-15.5a41 41 0 0 1 4.5-6"/><path style="opacity:1" fill="#e0eced" d="M545.5 589.5q-4.5 2-9 0-2.59-9.9-5 0-2.5 2-5 0 9.321-5.134 3.5-14a12.4 12.4 0 0 0-4.5-5 50.5 50.5 0 0 1 20 0q-4.678 2.574-7 7.5a66 66 0 0 0 7 11.5"/><path style="opacity:1" fill="#576665" d="M536.5 589.5h-5q2.41-9.9 5 0"/><path style="opacity:1" fill="#4d6969" d="M536.5 570.5q5.384 1.308 1 5-2.886-2.198-1-5"/><path style="opacity:1" fill="#e7f1f2" d="M347.5 589.5q-1.423.979-3.5 1-2.522-.162-3.5-2 .842-9.336-2-18a21.1 21.1 0 0 1 9-1q-.086 5.45 3 .5a18.5 18.5 0 0 1 6-.5q.359 2.951-1 5.5-3.84-.657-7.5.5a98.4 98.4 0 0 0-.5 14"/><path style="opacity:1" fill="#e9f1f2" d="M442.5 562.5q2.765 2.668 2 7 10 1 0 2v17q7.99-2.802 2 2.5-5.185 1.685-8.5-2.5.147-9.18-2.5-17.5 4.385-3.625 7-8.5"/><path style="opacity:1" fill="#ddeceb" d="M424.5 559.5a18.5 18.5 0 0 1 6 .5q1.468 6.775-6 5.5z"/><path style="opacity:1" fill="#e1f1ef" d="M453.5 559.5h6v6h-6z"/><path style="opacity:1" fill="#b7c5c6" d="M234.5 549.5v55h477v1h-476q-1.997-13.463-2-28a386 386 0 0 1 1-28"/><path style="opacity:1" fill="#f6fefe" d="M235.5 605.5h476q.166.925 1 1.5l-44.5.5a27651 27651 0 0 1-285.5-1q-71.794.996-143.5 2-2.277-.995-3.5-3"/></svg>